<svg xmlns="http://www.w3.org/2000/svg" width="512" height="512" id="psd"><path fill="#2B236E" d="M386 25H134v460h347V120.604z"></path><path fill="#95C9FE" d="M387 25v95h94z"></path><path d="m403 286-63 15-32.5-45-65.5-11-29 6-3 78-7 77 128.461 79H481V343.285z" opacity=".302"></path><path fill="#7EBCF9" d="M202.047 237.836c11.183-2.039 26.688-3.567 47.783-3.567 22.875 0 39.649 4.841 50.579 14.015 10.166 8.409 16.774 21.915 16.774 37.969 0 16.309-5.083 29.813-14.741 38.987-12.454 12.486-32.025 18.348-54.138 18.348-5.846 0-11.183-.255-15.25-1.02v64.725h-31.008V237.836zm31.008 80.015c3.812 1.02 8.896 1.274 15.25 1.274 23.384 0 37.617-11.468 37.617-31.599 0-19.111-13.217-29.304-34.821-29.304-8.642 0-14.742.764-18.045 1.528v58.101zM331.162 378.498c7.116 4.332 20.587 8.919 31.771 8.919 13.725 0 19.825-5.606 19.825-13.761 0-8.409-5.083-12.741-20.333-18.092-24.146-8.409-34.313-21.66-34.059-36.185 0-21.915 18.046-38.988 46.767-38.988 13.725 0 25.671 3.567 32.787 7.39l-6.1 22.17c-5.338-3.058-15.25-7.135-26.18-7.135-11.183 0-17.283 5.351-17.283 12.995 0 7.899 5.846 11.723 21.604 17.328 22.366 8.154 32.787 19.621 33.041 37.969 0 22.424-17.537 38.732-50.324 38.732-14.996 0-28.467-3.567-37.616-8.663l6.1-22.679z"></path><path fill="#95C9FE" d="M30 48h326v108H30z"></path><path fill="#2B236E" d="M131.192 67.566c4.409-.817 10.601-1.43 19.325-1.43 8.818 0 15.104 1.838 19.325 5.514 4.034 3.472 6.754 9.19 6.754 15.929 0 6.74-2.064 12.458-5.816 16.338-4.878 5.004-12.102 7.25-20.544 7.25-1.876 0-3.565-.102-4.878-.306v24.609h-14.166V67.566zm14.165 31.247c1.22.307 2.721.409 4.784.409 7.599 0 12.29-4.187 12.29-11.232 0-6.331-4.034-10.109-11.164-10.109-2.908 0-4.878.306-5.91.612v20.32zM180.534 119.439c3.846 2.145 9.756 4.289 15.854 4.289 6.567 0 10.038-2.961 10.038-7.455 0-4.289-3.002-6.739-10.601-9.7-10.507-3.982-17.355-10.313-17.355-20.32 0-11.743 9.006-20.729 23.922-20.729 7.129 0 12.383 1.634 16.135 3.472l-3.189 12.56a28.087 28.087 0 0 0-13.227-3.268c-6.192 0-9.194 3.063-9.194 6.637 0 4.391 3.565 6.331 11.727 9.701 11.164 4.493 16.417 10.824 16.417 20.524 0 11.539-8.162 21.341-25.517 21.341-7.224 0-14.353-2.042-17.918-4.187l2.908-12.865zM225.092 67.566c5.253-.919 12.102-1.43 19.325-1.43 12.008 0 19.794 2.349 25.892 7.352 6.566 5.31 10.694 13.785 10.694 25.937 0 13.172-4.409 22.26-10.507 27.876-6.661 6.024-16.792 8.884-29.175 8.884-7.411 0-12.665-.511-16.229-1.021V67.566zm14.353 56.162c1.22.306 3.19.306 4.972.306 12.946.102 21.389-7.658 21.389-24.099.094-14.295-7.599-21.852-19.888-21.852-3.189 0-5.253.306-6.473.612v45.033z"></path></svg>