<svg xmlns="http://www.w3.org/2000/svg" viewBox="0 0 48 48" id="best-seller"><g data-name="Best Seller"><path fill="#f8f9f9" d="M16.83 38.24 9.07 46 7 41.05l-5-2.12 6.84-6.84.67.52a7.08 7.08 0 0 1 1.91 1.46c.87 1 1.17 2.29 3.08 3.39a6.24 6.24 0 0 0 2.33.78zm29.17.69-5 2.12-2.12 5-7.76-7.76a6.24 6.24 0 0 0 2.33-.78c2.61-1.51 2.08-3.21 4.64-4.64a6.38 6.38 0 0 0 1-.73z"></path><path fill="#bec6c6" d="m13.83 37-6 6-.85-2L5 40.2l6.29-6.29c1.13 1.19.95 1.91 2.54 3.09zM43 40.2l-2 .85-.85 2-6-6c1.62-1.2 1.41-1.9 2.57-3.09z"></path><path fill="#bec6c6" d="M27.17 2.85a6.37 6.37 0 0 0 3.16.85 6.32 6.32 0 0 1 5.49 3.16 6.15 6.15 0 0 0 2.32 2.32 6.32 6.32 0 0 1 3.16 5.49 6.37 6.37 0 0 0 .85 3.16 6.35 6.35 0 0 1 0 6.34 6.37 6.37 0 0 0-.85 3.16 6.32 6.32 0 0 1-3.16 5.49 6.15 6.15 0 0 0-2.32 2.32 6.32 6.32 0 0 1-5.49 3.16 6.37 6.37 0 0 0-3.16.85 6.35 6.35 0 0 1-6.34 0 6.37 6.37 0 0 0-3.16-.85 6.32 6.32 0 0 1-5.49-3.16 6.15 6.15 0 0 0-2.32-2.32 6.32 6.32 0 0 1-3.16-5.49 6.37 6.37 0 0 0-.85-3.16 6.35 6.35 0 0 1 0-6.34 6.37 6.37 0 0 0 .85-3.16 6.32 6.32 0 0 1 3.16-5.49 6.15 6.15 0 0 0 2.32-2.32 6.32 6.32 0 0 1 5.49-3.16 6.37 6.37 0 0 0 3.16-.85 6.35 6.35 0 0 1 6.34 0Z"></path><path fill="#f8f9f9" d="M26.5 6.67a5 5 0 0 0 2.5.67 5 5 0 0 1 4.33 2.5 5 5 0 0 0 1.83 1.83 5 5 0 0 1 2.5 4.33 5 5 0 0 0 .67 2.5 5 5 0 0 1 0 5 5 5 0 0 0-.67 2.5 5 5 0 0 1-2.5 4.33 5 5 0 0 0-1.83 1.83 5 5 0 0 1-4.33 2.5 5 5 0 0 0-2.5.67 5 5 0 0 1-5 0 5 5 0 0 0-2.5-.67 5 5 0 0 1-4.33-2.5 5 5 0 0 0-1.83-1.83 5 5 0 0 1-2.5-4.33 5 5 0 0 0-.67-2.5 5 5 0 0 1 0-5 5 5 0 0 0 .67-2.5 5 5 0 0 1 2.5-4.33 5 5 0 0 0 1.83-1.83A5 5 0 0 1 19 7.34a5 5 0 0 0 2.5-.67 5 5 0 0 1 5 0Z"></path><path fill="#414141" d="m46.71 38.22-6.16-6.15a7.33 7.33 0 0 0 1.75-4.74 5.31 5.31 0 0 1 .7-2.66 7.39 7.39 0 0 0 0-7.34 5.31 5.31 0 0 1-.72-2.66 7.34 7.34 0 0 0-3.66-6.35 5.42 5.42 0 0 1-2-2 7.34 7.34 0 0 0-6.29-3.62 5.31 5.31 0 0 1-2.66-.7 7.39 7.39 0 0 0-7.34 0 5.31 5.31 0 0 1-2.66.72 7.34 7.34 0 0 0-6.35 3.66 5.42 5.42 0 0 1-2 2 7.34 7.34 0 0 0-3.62 6.29 5.31 5.31 0 0 1-.7 2.66 7.39 7.39 0 0 0 0 7.34 5.31 5.31 0 0 1 .72 2.66 7.33 7.33 0 0 0 1.75 4.74l-6.18 6.15a1 1 0 0 0 .32 1.63l4.58 2 2 4.58a1 1 0 0 0 1.63.32l7.43-7.44h.46c2.6 0 3.08 1.7 6.33 1.7s3.7-1.7 6.33-1.7h.46l7.43 7.44a1 1 0 0 0 1.63-.32l2-4.58 4.58-2a1 1 0 0 0 .24-1.63Zm-37.3 6c-1.63-3.81-1.57-3.91-2.07-4.12l-3.59-1.51 5.19-5.19a6.23 6.23 0 0 1 2.38 2.24 7.39 7.39 0 0 0 3.58 3.12Zm17.26-6a5.36 5.36 0 0 1-5.34 0 7.26 7.26 0 0 0-3.66-1 5.35 5.35 0 0 1-4.62-2.66A7.31 7.31 0 0 0 10.36 32a5.35 5.35 0 0 1-2.66-4.67 7.26 7.26 0 0 0-1-3.66 5.36 5.36 0 0 1 0-5.34 7.26 7.26 0 0 0 1-3.66 5.35 5.35 0 0 1 2.66-4.62 7.31 7.31 0 0 0 2.69-2.69 5.35 5.35 0 0 1 4.62-2.66 7.26 7.26 0 0 0 3.66-1 5.38 5.38 0 0 1 5.34 0 7.26 7.26 0 0 0 3.66 1A5.35 5.35 0 0 1 35 7.36a7.31 7.31 0 0 0 2.69 2.69 5.35 5.35 0 0 1 2.66 4.62 7.26 7.26 0 0 0 1 3.66 5.36 5.36 0 0 1 0 5.34 7.26 7.26 0 0 0-1 3.66A5.35 5.35 0 0 1 37.64 32 7.31 7.31 0 0 0 35 34.64a5.35 5.35 0 0 1-4.62 2.66 7.26 7.26 0 0 0-3.71.99Zm14 1.84c-.49.21-.4.22-2.07 4.12l-5.5-5.42a7.39 7.39 0 0 0 3.58-3.12 6.27 6.27 0 0 1 2.38-2.24l5.19 5.19Z"></path><path fill="#bec6c6" d="m18 14.1.66 1.19 1.34.26-.93 1 .17 1.35-1.24-.57-1.24.57.17-1.35-.93-1 1.34-.26.66-1.19zM30 14.1l-.66 1.19-1.34.26.93 1-.17 1.35 1.24-.57 1.24.57-.17-1.35.93-1-1.34-.26L30 14.1zM24 11.1l.66 1.19 1.34.26-.93 1 .17 1.35-1.24-.57-1.24.57.17-1.35-.93-1 1.34-.26.66-1.19z"></path><path fill="#6457ff" d="M19 30h1l1.58.79a2 2 0 0 0 .89.21h5.79a2 2 0 0 0 2-1.72c.8-5.59.76-5.21.76-5.41A1.87 1.87 0 0 0 29.13 22H25l.55-2.77c.4-2-2.3-3-2.78-1.55-.92 2.78-.4 1.95-2.77 4.32h-1Z"></path><path fill="#bec6c6" d="M16 21h2a1 1 0 0 1 1 1v8a1 1 0 0 1-1 1h-2V21Z"></path></g></svg>