<svg xmlns="http://www.w3.org/2000/svg" xmlns:xlink="http://www.w3.org/1999/xlink" data-name="Price Down" viewBox="0 0 64 64" id="price"><defs><linearGradient id="a" x1="25.06" x2="44.94" y1="32" y2="32" gradientUnits="userSpaceOnUse"><stop offset="0" stop-color="#da5466"></stop><stop offset="1" stop-color="#f4929c"></stop></linearGradient><linearGradient id="c" x1="15" x2="55" y1="26" y2="26" gradientUnits="userSpaceOnUse"><stop offset="0" stop-color="#fbcc88"></stop><stop offset="1" stop-color="#ffe5c3"></stop></linearGradient><linearGradient id="d" x1="19" x2="51" y1="26" y2="26" gradientUnits="userSpaceOnUse"><stop offset="0" stop-color="#e9a254"></stop><stop offset="1" stop-color="#f4bb79"></stop></linearGradient><linearGradient id="b" x1="30" x2="40" y1="26" y2="26" gradientUnits="userSpaceOnUse"><stop offset="0" stop-color="#d4d8e1"></stop><stop offset="1" stop-color="#f3f4f5"></stop></linearGradient><linearGradient id="e" x1="9" x2="29" y1="12" y2="12" xlink:href="#a"></linearGradient><linearGradient id="f" x1="15" x2="23" y1="12" y2="12" xlink:href="#b"></linearGradient><linearGradient id="g" x1="14" x2="18" y1="9" y2="9" xlink:href="#b"></linearGradient><linearGradient id="h" x1="20" x2="24" y1="15" y2="15" xlink:href="#b"></linearGradient></defs><path fill="url(#a)" d="M40,50V1a1,1,0,0,0-1-1H31a1,1,0,0,0-1,1V50H26.06a1,1,0,0,0-.79,1.62L35,64l9.73-12.38A1,1,0,0,0,43.94,50Z"></path><circle cx="35" cy="26" r="20" fill="url(#c)"></circle><circle cx="35" cy="26" r="16" fill="url(#d)"></circle><path fill="url(#b)" d="M36,25.05V20a2,2,0,0,1,2,2,1,1,0,0,0,1,1c2.09,0,.81-5-3-5V16a1,1,0,0,0-2,0v2.05A4.48,4.48,0,0,0,34,27V32a2,2,0,0,1-2-2,1,1,0,0,0-1-1c-2.09,0-.81,5,3,5v2a1,1,0,0,0,2,0V34a4.48,4.48,0,0,0,0-8.9ZM32,22.5a2.5,2.5,0,0,1,2-2.45V25A2.5,2.5,0,0,1,32,22.5ZM36,32v-4.9A2.5,2.5,0,0,1,36,32Z"></path><circle cx="19" cy="12" r="10" fill="url(#e)"></circle><path fill="url(#f)" d="M16,16a1,1,0,0,1-.71-1.71l6-6a1,1,0,0,1,1.42,1.42l-6,6A1,1,0,0,1,16,16Z"></path><circle cx="16" cy="9" r="2" fill="url(#g)"></circle><circle cx="22" cy="15" r="2" fill="url(#h)"></circle><path fill="#fff2e3" d="M49 15a1 1 0 0 1-1-1V8a1 1 0 0 1 2 0v6A1 1 0 0 1 49 15zM52 50a1 1 0 0 1-1-1V43a1 1 0 0 1 2 0v6A1 1 0 0 1 52 50zM19 54a1 1 0 0 1-1-1V47a1 1 0 0 1 2 0v6A1 1 0 0 1 19 54z"></path></svg>